HIERARCHY
ROOT Hips
{
  OFFSET -33.9132 29.2015 117.021
  CHANNELS 6 Xposition Yposition Zposition Zrotation Xrotation Yrotation
  JOINT LeftUpLeg
  {
    OFFSET 8.64259 1.95398 -2.38835
    CHANNELS 3 Zrotation Xrotation Yrotation
    JOINT LeftLeg
    {
      OFFSET 43.7702 0 0
      CHANNELS 3 Zrotation Xrotation Yrotation
      JOINT LeftFoot
      {
        OFFSET 40.6238 0 0
        CHANNELS 3 Zrotation Xrotation Yrotation
        JOINT LeftToeBase
        {
          OFFSET 12.7242 0 0
          CHANNELS 3 Zrotation Xrotation Yrotation
          End Site
          {
            OFFSET 0 0 0
          }
        }
      }
    }
  }
  JOINT RightUpLeg
  {
    OFFSET -8.2249 1.95398 -2.59336
    CHANNELS 3 Zrotation Xrotation Yrotation
    JOINT RightLeg
    {
      OFFSET 43.5653 0 0
      CHANNELS 3 Zrotation Xrotation Yrotation
      JOINT RightFoot
      {
        OFFSET 40.6238 0 0
        CHANNELS 3 Zrotation Xrotation Yrotation
        JOINT RightToeBase
        {
          OFFSET 12.7242 0 0
          CHANNELS 3 Zrotation Xrotation Yrotation
          End Site
          {
            OFFSET 0 0 0
          }
        }
      }
    }
  }
  JOINT Spine
  {
    OFFSET 0.165834 0.87714 6.61349
    CHANNELS 3 Zrotation Xrotation Yrotation
    JOINT Spine1
    {
      OFFSET 7.38963 1.71661e-005 0
      CHANNELS 3 Zrotation Xrotation Yrotation
      JOINT Spine2
      {
        OFFSET 11.9445 1.14441e-005 0
        CHANNELS 3 Zrotation Xrotation Yrotation
        JOINT Spine3
        {
          OFFSET 14.7254 4.19617e-005 0
          CHANNELS 3 Zrotation Xrotation Yrotation
          JOINT Spine4
          {
            OFFSET 10.9679 0 0
            CHANNELS 3 Zrotation Xrotation Yrotation
            JOINT RightShoulder
            {
              OFFSET 2.46616 -1.6653 3.69651
              CHANNELS 3 Zrotation Xrotation Yrotation
              JOINT RightArm
              {
                OFFSET 13.0012 0 0
                CHANNELS 3 Zrotation Xrotation Yrotation
                JOINT RightForeArm
                {
                  OFFSET 28.7848 1.62311e-005 0
                  CHANNELS 3 Zrotation Xrotation Yrotation
                  JOINT RightHand
                  {
                    OFFSET 26.5688 1.62095e-005 0
                    CHANNELS 3 Zrotation Xrotation Yrotation
                    End Site
                    {
                      OFFSET 0 0 0
                    }
                  }
                }
              }
            }
            JOINT LeftShoulder
            {
              OFFSET 2.38034 -1.29275 -3.7523
              CHANNELS 3 Zrotation Xrotation Yrotation
              JOINT LeftArm
              {
                OFFSET 16.3182 6.07031e-005 0
                CHANNELS 3 Zrotation Xrotation Yrotation
                JOINT LeftForeArm
                {
                  OFFSET 27.0901 0 0
                  CHANNELS 3 Zrotation Xrotation Yrotation
                  JOINT LeftHand
                  {
                    OFFSET 24.5451 1.51738e-005 0
                    CHANNELS 3 Zrotation Xrotation Yrotation
                    End Site
                    {
                      OFFSET 0 0 0
                    }
                  }
                }
              }
            }
            JOINT Neck
            {
              OFFSET 5.0226 -0.0266342 0
              CHANNELS 3 Zrotation Xrotation Yrotation
              JOINT Head
              {
                OFFSET 6.69364 2.86102e-005 0
                CHANNELS 3 Zrotation Xrotation Yrotation
                End Site
                {
                  OFFSET 0 0 0
                }
              }
            }
          }
        }
      }
    }
  }
}
MOTION
Frames:	13
Frame Time:	0.0416667
-90.7212 94.7932 -79.7782 -114.638 52.7448 -77.3367 -169.028 13.0777 83.4233 -39.2795 8.7222 -7.52459 68.3701 6.29735 6.36219 14.6799 -5.6762 -1.8495 175.214 -6.74017 76.8406 -69.4739 -30.0357 -12.5308 55.1422 3.08759 -0.998011 17.9175 2.23136 7.96123 1.40724 8.54125 -89.3846 9.779 3.08382 0.975394 -1.88857 3.12376 0.838603 -24.4438 2.64804 1.85758 -4.43116 2.64807 1.85759 91.5325 -23.7529 -106.046 29.4299 -6.31137 -34.9275 -29.5761 -12.4525 -69.2353 -46.835 5.68781 -18.4425 -88.3318 -47.5457 80.7538 -10.0885 -10.2961 18.1849 -11.5337 25.6851 -0.0209471 6.44197 0.421892 -2.73866 16.2232 1.31405 -0.159716 -3.41755 1.31274 1.01381 
-93.8031 96.1215 -82.1685 -112.196 52.1711 -78.8847 -170.142 10.0949 83.0991 -36.1137 8.27557 -7.15227 69.3371 7.05992 6.27219 15.6727 -5.22147 -1.80322 178.726 0.134706 80.2519 -72.7635 -23.796 -10.8616 58.1767 1.01112 -1.82225 19.1507 2.31639 6.34278 1.17636 8.39127 -89.4469 10.0814 2.59613 0.881597 -1.58723 2.63243 0.766419 -24.136 2.21115 1.62135 -4.12339 2.21113 1.62135 90.8521 -25.9493 -106.614 32.6562 -10.5108 -26.6061 -32.4213 -14.0121 -69.307 -50.0122 6.93294 -20.1488 -88.1347 -49.4598 81.4222 -11.9435 -9.29375 9.25838 -12.3178 24.456 -0.021167 6.90052 0.0264557 -6.50288 14.9253 1.98825 0.857376 -2.98665 1.70024 0.0354038 
-96.6994 97.8346 -84.6359 -110.541 49.0147 -78.6096 -171.859 5.86118 84.0965 -31.8376 10.1653 -5.58372 69.3036 6.97455 5.96403 15.9703 -5.69305 -0.730205 179.178 4.75533 84.0712 -70.8943 -20.7605 -8.77515 60.8421 -0.891944 -2.9203 17.6486 2.62812 7.19715 0.811929 8.33721 -89.7429 10.1973 1.73495 0.363122 -1.47251 1.74927 0.286374 -24.015 1.5456 0.867861 -4.00235 1.54561 0.86787 90.6676 -27.1852 -106.503 35.8773 -10.151 -13.7085 -43.8944 -18.0099 -72.8469 -41.6722 6.19885 -21.6199 -88.4171 -51.8187 81.4344 -12.9372 -8.31649 -0.602629 -12.8922 20.427 -0.020134 6.03472 -0.626325 -14.1197 13.4678 2.22917 2.06071 -2.74397 1.64088 -0.84419 
-99.454 99.1627 -86.8902 -108.148 45.0643 -79.0193 -173.363 2.32113 84.9109 -27.7492 13.0686 -3.7305 69.123 7.04595 6.12013 16.0132 -6.05304 -0.0681731 178.013 9.15807 86.9997 -65.4125 -17.0935 -6.41009 62.2657 -1.75469 -3.41812 18.1328 2.48918 7.03705 0.43732 8.24827 -89.9193 10.3773 0.908221 0.0805963 -1.29338 0.9109 0.0405431 -23.8307 0.841999 0.349844 -3.8181 0.84201 0.349846 90.1915 -28.9029 -106.799 40.4206 -8.41998 -7.49115 -39.3576 -23.565 -63.8618 -33.9282 6.69886 -27.3364 -88.6958 -51.0527 80.8816 -16.4273 -7.70786 -10.584 -12.2999 18.0408 -0.505465 5.20583 -0.996389 -19.1563 12.1217 1.49661 0.520671 -2.47232 1.32938 -0.535908 
-102.354 100.024 -89.108 -105.991 40.6654 -79.4879 -174.547 -0.665254 85.7761 -25.1047 16.2327 -1.93545 69.382 7.29331 6.59981 16.5323 -5.88639 0.0950129 175.948 11.9606 88.4692 -55.9718 -13.1609 -3.68961 62.7012 -2.06757 -3.56022 18.7054 2.42009 6.56605 0.0765168 8.23825 -90.1059 10.3978 0.103977 -0.219165 -1.27317 0.0942333 -0.22354 -23.8083 0.165047 -0.177777 -3.79561 0.165034 -0.177791 89.8176 -29.5648 -107.29 45.7824 -7.26335 1.04903 -24.5019 -18.6679 -53.1179 -27.7048 3.61389 -19.5487 -88.997 -50.5696 80.3417 -17.7303 -4.73494 -23.8055 -12.8592 16.5634 -1.84793 6.19768 -1.22776 -20.2693 11.9443 0.612052 -1.15621 -2.11845 0.880248 0.429592 
-104.822 100.467 -91.3846 -103.939 37.1968 -80.3625 -174.734 -2.90682 86.6955 -22.9904 18.937 -0.956727 69.828 7.49752 6.52661 16.7691 -5.49172 -0.39038 175.229 14.107 89.5774 -44.5091 -9.57197 -1.73553 62.42 -1.93292 -2.91901 18.2995 2.53264 6.71738 -0.0964414 8.20596 -90.2154 10.4612 -0.290804 -0.402297 -1.20973 -0.308246 -0.389109 -23.7445 -0.156469 -0.471092 -3.73188 -0.156467 -0.471095 90.1059 -29.3642 -106.792 45.353 1.5582 -12.3859 -13.8161 -45.4791 -17.0438 -31.4674 6.29942 -26.8249 -89.9832 -49.3222 78.6077 -18.6681 -2.42664 -37.7688 -13.9495 22.0102 -0.256434 8.80444 -1.78682 -21.5456 11.9428 -0.664578 -2.73454 -1.63652 0.0206859 0.717589 
-107.383 100.468 -93.5748 -102.455 33.7516 -81.4232 -175.092 -5.15828 87.1526 -21.7681 21.2238 0.153592 71.0831 8.30174 6.17184 17.2535 -5.04308 -0.765101 175.268 14.697 89.5134 -31.1617 -8.10782 -0.759772 60.9157 -1.26947 -2.27123 18.556 2.39108 6.82577 -0.329448 8.20774 -90.194 10.4573 -0.745164 -0.319618 -1.21342 -0.758516 -0.28652 -23.7495 -0.614675 -0.528805 -3.73687 -0.614658 -0.528801 90.1136 -30.2194 -106.451 44.1998 6.48079 -7.98218 -6.17477 -52.6352 -6.03815 -23.6794 4.15661 -25.3942 -90.2722 -46.26 77.4702 -21.4548 -1.3751 -49.5836 -13.4486 28.1208 -0.0223909 10.6824 -2.14468 -21.8775 12.5863 -1.86276 -4.82219 -1.65725 -0.605738 1.2384 
-110.138 100.231 -96.1033 -102.058 31.7012 -82.5361 -174.904 -8.37752 87.4347 -20.2443 23.1241 0.43707 72.3295 9.41279 6.00753 17.7133 -4.61645 -1.13301 175.608 13.9639 88.8805 -17.898 -8.28119 -0.574774 58.1872 0.224956 -1.78627 18.8755 2.38689 6.46059 -0.481642 8.28541 -90.1018 10.303 -1.00613 -0.115072 -1.3676 -1.01024 -0.0706767 -23.9055 -0.925024 -0.412162 -3.89281 -0.925034 -0.412168 90.1808 -30.6451 -106.159 44.2481 8.59608 0.536607 -5.53423 -45.2708 -5.59438 -17.5033 1.33605 -14.2472 -90.5447 -43.7776 76.4294 -22.6384 -0.474266 -58.6259 -12.7675 29.9736 -0.641907 13.3273 -2.874 -23.2837 13.1527 -2.37463 -5.17872 -1.37755 -0.991293 0.781932 
-112.983 99.5162 -98.8267 -102.084 30.9223 -83.4983 -174.155 -11.6093 88.0009 -19.3005 23.9068 0.113617 74.883 11.1863 4.84796 18.5146 -4.01817 -1.52908 175.594 13.8363 88.6081 -9.02454 -7.69124 -0.231819 57.9691 0.414871 -0.995136 19.7669 2.09462 6.23415 -0.597862 8.35373 -89.9584 10.1677 -1.17213 0.181583 -1.50269 -1.16301 0.232992 -24.0421 -1.17253 -0.17914 -4.0294 -1.17253 -0.179147 89.6321 -30.6943 -107.219 43.8211 10.417 7.68221 -4.99385 -37.2171 -5.27868 -9.50903 -0.0180108 -4.94661 -90.1526 -41.0164 76.3555 -23.1796 -0.142912 -65.2547 -11.2261 31.8821 -2.40707 14.6358 -3.41162 -24.8626 13.2363 -2.41997 -5.47121 -0.94395 -0.954676 0.745417 
-116.214 98.3733 -101.827 -102.234 30.8759 -83.7675 -172.926 -14.6145 89.1929 -19.6399 24.816 -0.316946 77.88 13.4746 4.80412 19.8868 -3.72282 -0.859018 175.432 15.019 89.1428 -7.39329 -3.08424 0.766667 61.0005 -0.972083 0.187185 22.242 1.233 5.82872 -0.641382 8.37765 -89.9236 10.1203 -1.24316 0.256022 -1.55007 -1.23069 0.310489 -24.09 -1.26263 -0.129502 -4.07733 -1.26264 -0.129503 89.9457 -29.3993 -107.099 45.1622 11.361 13.2089 -4.60098 -30.1444 -5.10113 -7.61301 -0.282931 -1.14536 -89.8574 -40.197 76.6308 -21.9899 0.210877 -69.46 -9.90586 32.568 -4.75635 15.4548 -4.18629 -28.2764 13.3185 -2.17117 -4.33641 -0.949468 -1.00971 -0.00129158 
-119.79 97.1063 -104.956 -102.476 30.8171 -84.2108 -172.126 -17.8158 89.9608 -20.197 25.0845 -0.399567 80.3803 15.4353 4.65709 21.3482 -2.96228 -0.998906 174.823 14.3129 89.654 -8.02918 -0.565446 1.68606 61.3879 -1.61427 2.51967 27.7544 0.478166 -0.0215976 -0.765169 8.33971 -89.845 10.1977 -1.45392 0.431305 -1.47254 -1.43354 0.49488 -24.0142 -1.51631 -0.025689 -4.00158 -1.51631 -0.0256999 90.5527 -28.643 -106.17 46.0039 12.2523 17.734 -4.30872 -24.196 -4.99929 -9.39565 -0.0480629 -4.82222 -89.6447 -41.0046 77.193 -21.349 0.362029 -69.9652 -7.57309 33.0589 -8.30503 15.9637 -4.9514 -31.7712 12.5531 -1.57289 -3.49255 -0.443107 -0.673035 -0.331771 
-123.495 96.6909 -108.261 -102.438 30.1505 -84.3597 -170.699 -20.868 91.8279 -19.7213 26.9009 -0.456424 78.7797 14.7508 4.67929 25.3352 -1.90367 0.680411 174.932 14.454 90.1154 -11.9735 -2.16356 1.48062 59.6666 -0.378362 -0.206614 23.5901 1.59848 2.68511 -0.958395 8.24847 -89.8309 10.3818 -1.83178 0.496069 -1.28803 -1.80818 0.576227 -23.8335 -1.89616 -0.0775849 -3.8209 -1.89615 -0.0775885 92.1305 -27.0438 -103.506 47.1078 12.7008 20.3894 -4.15204 -20.7892 -4.95784 -9.16814 0.370773 -10.4218 -89.8799 -42.5841 77.2012 -20.6222 0.919941 -66.7494 -3.77425 34.5733 -13.6811 17.4116 -6.04064 -35.0783 11.5769 -0.956591 -2.67444 -0.239854 -0.297169 -0.248004 
-127.385 96.6713 -111.766 -102.073 29.5877 -84.1985 -169.984 -22.0774 93.384 -21.6944 27.4315 0.451696 74.318 11.8338 5.27454 33.6127 2.39435 -0.698969 174.7 16.8769 90.6464 -19.5535 -5.70744 1.78302 58.6532 1.94082 -2.19128 16.2265 3.73229 5.75771 -1.13959 8.05547 -89.946 10.7682 -2.24424 0.315547 -0.900825 -2.22816 0.414056 -23.4514 -2.23527 -0.373878 -3.43872 -2.23526 -0.373879 93.3916 -26.195 -101.122 46.9467 13.0209 21.5858 -4.10733 -19.7909 -4.94774 -8.63242 0.57667 -13.6549 -90.5456 -46.1143 77.0093 -19.2826 2.28066 -59.8257 0.962613 36.6617 -19.941 20.759 -7.67444 -37.2954 10.7576 -0.140691 -0.910385 -1.3816 0.0722046 0.155452 
